<svg width="24" height="24" viewBox="0 0 24 24" fill="none" xmlns="http://www.w3.org/2000/svg">
<path d="M10.9533 11.1267C10.0304 11.1267 9.1281 10.853 8.36067 10.3402C7.59324 9.82741 6.9951 9.09858 6.64189 8.24586C6.28868 7.39313 6.19627 6.45482 6.37633 5.54958C6.5564 4.64433 7.00085 3.81281 7.6535 3.16017C8.30614 2.50752 9.13766 2.06307 10.0429 1.883C10.9482 1.70294 11.8865 1.79535 12.7392 2.14856C13.5919 2.50177 14.3207 3.09991 14.8335 3.86734C15.3463 4.63477 15.62 5.53702 15.62 6.46C15.62 7.69768 15.1283 8.88466 14.2532 9.75983C13.378 10.635 12.191 11.1267 10.9533 11.1267ZM10.9533 3.18C10.2941 3.18 9.64959 3.3755 9.10143 3.74177C8.55327 4.10804 8.12602 4.62863 7.87373 5.23772C7.62144 5.84681 7.55543 6.51703 7.68405 7.16363C7.81266 7.81024 8.13013 8.40418 8.59631 8.87036C9.06248 9.33653 9.65643 9.654 10.303 9.78262C10.9496 9.91123 11.6199 9.84522 12.2289 9.59293C12.838 9.34064 13.3586 8.9134 13.7249 8.36523C14.0912 7.81707 14.2867 7.1726 14.2867 6.51333C14.2867 6.07559 14.2004 5.64214 14.0329 5.23772C13.8654 4.8333 13.6199 4.46584 13.3104 4.15631C13.0008 3.84678 12.6334 3.60125 12.2289 3.43373C11.8245 3.26622 11.3911 3.18 10.9533 3.18ZM14.6667 11.9333C11.059 11.121 7.28455 11.512 3.92 13.0467C3.45726 13.2677 3.06684 13.6157 2.7942 14.05C2.52155 14.4843 2.37791 14.9872 2.38 15.5V19.4667C2.38 19.5542 2.39724 19.6409 2.43074 19.7218C2.46425 19.8027 2.51335 19.8762 2.57526 19.9381C2.63716 20 2.71066 20.0491 2.79154 20.0826C2.87242 20.1161 2.95912 20.1333 3.04666 20.1333C3.13421 20.1333 3.2209 20.1161 3.30179 20.0826C3.38267 20.0491 3.45616 20 3.51807 19.9381C3.57997 19.8762 3.62908 19.8027 3.66258 19.7218C3.69609 19.6409 3.71333 19.5542 3.71333 19.4667V15.5C3.70753 15.2405 3.77761 14.9849 3.91498 14.7646C4.05236 14.5443 4.25104 14.369 4.48666 14.26C6.51344 13.3239 8.72085 12.8438 10.9533 12.8533C12.2042 12.8519 13.4508 12.9996 14.6667 13.2933V11.9333ZM14.76 18.2733H18.8533V19.2067H14.76V18.2733Z" fill="white"/>
<path d="M22.1133 14.3133H18.6667V15.6467H21.4467V21.2267H12V15.6467H16.2V15.9267C16.2 16.1035 16.2702 16.273 16.3953 16.3981C16.5203 16.5231 16.6899 16.5933 16.8667 16.5933C17.0435 16.5933 17.213 16.5231 17.3381 16.3981C17.4631 16.273 17.5333 16.1035 17.5333 15.9267V13.3333C17.5333 13.1565 17.4631 12.987 17.3381 12.8619C17.213 12.7369 17.0435 12.6667 16.8667 12.6667C16.6899 12.6667 16.5203 12.7369 16.3953 12.8619C16.2702 12.987 16.2 13.1565 16.2 13.3333V14.3133H11.3333C11.1565 14.3133 10.9869 14.3836 10.8619 14.5086C10.7369 14.6336 10.6667 14.8032 10.6667 14.98V21.8933C10.6667 22.0701 10.7369 22.2397 10.8619 22.3647C10.9869 22.4898 11.1565 22.56 11.3333 22.56H22.1133C22.2901 22.56 22.4597 22.4898 22.5847 22.3647C22.7098 22.2397 22.78 22.0701 22.78 21.8933V14.98C22.78 14.8032 22.7098 14.6336 22.5847 14.5086C22.4597 14.3836 22.2901 14.3133 22.1133 14.3133Z" fill="white"/>
</svg>
