<svg width="24" height="24" viewBox="0 0 24 24" fill="none" xmlns="http://www.w3.org/2000/svg">
<path d="M12 7C12.5523 7 13 6.55228 13 6C13 5.44772 12.5523 5 12 5C11.4477 5 11 5.44772 11 6C11 6.55228 11.4477 7 12 7Z" fill="white"/>
<path d="M6 17H18V19H6V17ZM10 11.83L12.792 14.624L16.724 10.689L18 12V8H14L15.31 9.275L12.791 11.794L10 9L6 13L7.414 14.414L10 11.83Z" fill="white"/>
<path d="M19 3H15.702C15.603 2.85275 15.4961 2.71089 15.382 2.575L15.372 2.563C14.637 1.70757 13.6034 1.16468 12.482 1.045C12.1635 0.984909 11.8365 0.984909 11.518 1.045C10.3966 1.16468 9.36298 1.70757 8.628 2.563L8.618 2.575C8.5039 2.71056 8.39708 2.8521 8.298 2.999V3H5C4.20459 3.00079 3.44199 3.31712 2.87956 3.87956C2.31712 4.44199 2.00079 5.20459 2 6V20C2.00079 20.7954 2.31712 21.558 2.87956 22.1204C3.44199 22.6829 4.20459 22.9992 5 23H19C19.7954 22.9992 20.558 22.6829 21.1204 22.1204C21.6829 21.558 21.9992 20.7954 22 20V6C21.9992 5.20459 21.6829 4.44199 21.1204 3.87956C20.558 3.31712 19.7954 3.00079 19 3ZM20 20C20 20.2652 19.8946 20.5196 19.7071 20.7071C19.5196 20.8946 19.2652 21 19 21H5C4.73478 21 4.48043 20.8946 4.29289 20.7071C4.10536 20.5196 4 20.2652 4 20V6C4 5.73478 4.10536 5.48043 4.29289 5.29289C4.48043 5.10536 4.73478 5 5 5H9.55C9.66476 4.43486 9.97136 3.92676 10.4179 3.56181C10.8644 3.19686 11.4233 2.99749 12 2.99749C12.5767 2.99749 13.1356 3.19686 13.5821 3.56181C14.0286 3.92676 14.3352 4.43486 14.45 5H19C19.2652 5 19.5196 5.10536 19.7071 5.29289C19.8946 5.48043 20 5.73478 20 6V20Z" fill="white"/>
</svg>
