<svg width="24" height="24" viewBox="0 0 24 24" fill="none" xmlns="http://www.w3.org/2000/svg">
<path d="M4.58 8.607L2 8.454C3.849 3.704 9.158 1 14.333 2.344C19.846 3.777 23.121 9.262 21.647 14.594C20.428 19.005 16.343 21.931 11.847 22" stroke="white" stroke-width="1.5" stroke-linecap="round" stroke-linejoin="round"/>
<path d="M12 22C6.5 22 2 17 2 11M13.604 9.722C13.252 9.352 12.391 8.485 11.029 9.102C9.668 9.717 9.452 11.698 11.511 11.909C12.441 12.004 13.048 11.799 13.604 12.379C14.16 12.961 14.263 14.577 12.843 15.013C11.423 15.449 10.502 14.729 10.255 14.504M11.908 8.02V8.81M11.908 15.147V16.02" stroke="white" stroke-width="1.5" stroke-linecap="round" stroke-linejoin="round"/>
</svg>
